<?xml version="1.0" standalone="no"?><!DOCTYPE svg PUBLIC "-//W3C//DTD SVG 1.1//EN" "http://www.w3.org/Graphics/SVG/1.1/DTD/svg11.dtd"><svg class="icon" width="200px" height="200.00px" viewBox="0 0 1024 1024" version="1.1" xmlns="http://www.w3.org/2000/svg"><path fill="#fff" d="M510.734178 1024s-1.969231 0 0 0c-261.907692 0-480.492308-196.923077-510.030769-454.892308-1.969231-21.661538 13.784615-41.353846 35.446154-43.323077 21.661538-1.969231 41.353846 13.784615 43.323077 35.446154 25.6 218.584615 208.738462 384 429.292308 384h1.96923c238.276923 0 433.230769-192.984615 433.23077-431.261538 0-116.184615-45.292308-224.492308-126.03077-307.2-82.707692-82.707692-191.015385-128-305.230769-128-43.323077 0-84.676923 5.907692-124.061538 17.723077-21.661538 5.907692-43.323077-5.907692-49.230769-25.6s5.907692-43.323077 25.6-49.23077c47.261538-13.784615 98.461538-21.661538 147.692307-21.661538 135.876923 0 265.846154 53.169231 360.369231 151.630769 96.492308 96.492308 149.661538 226.461538 149.661538 362.338462-1.969231 281.6-230.4 510.030769-512 510.030769z"  /><path fill="#fff" d="M235.041871 70.892308l-194.953846 159.507692c-3.938462 3.938462-5.907692 9.846154-1.969231 13.784615 0 1.969231 1.969231 1.969231 3.938461 1.969231l68.923077 31.507692c3.938462 1.969231 7.876923 7.876923 3.938462 13.784616l-72.861539 149.661538c-3.938462 9.846154 7.876923 19.692308 15.753847 11.815385l204.8-202.830769c3.938462-3.938462 3.938462-9.846154-1.969231-13.784616 0 0-1.969231-1.969231-3.938462-1.96923l-66.953846-21.661539c-5.907692-1.969231-7.876923-5.907692-5.907692-11.815385v-1.96923l63.015384-114.215385c7.876923-11.815385-1.969231-19.692308-11.815384-13.784615zM365.818486 689.230769V403.692308l-47.261538 35.446154v-51.2l47.261538-35.446154h47.261539V689.230769h-47.261539z m122.092308 0v-47.261538h47.261538V689.230769h-47.261538z m84.676923-267.815384c0-9.846154 1.969231-21.661538 5.907692-29.538462 3.938462-7.876923 9.846154-15.753846 15.753846-23.630769 5.907692-5.907692 13.784615-11.815385 23.63077-13.784616 7.876923-3.938462 17.723077-5.907692 27.56923-5.907692 9.846154 0 17.723077 1.969231 27.569231 5.907692 7.876923 3.938462 15.753846 7.876923 23.630769 13.784616 5.907692 5.907692 11.815385 13.784615 15.753847 23.630769 3.938462 9.846154 5.907692 19.692308 5.907692 29.538462v196.923077c0 9.846154-1.969231 21.661538-5.907692 29.538461-3.938462 7.876923-9.846154 15.753846-15.753847 23.630769-5.907692 5.907692-13.784615 11.815385-23.630769 13.784616-7.876923 3.938462-17.723077 5.907692-27.569231 5.907692-9.846154 0-17.723077-1.969231-27.56923-5.907692-7.876923-3.938462-15.753846-7.876923-23.63077-13.784616-5.907692-5.907692-11.815385-13.784615-15.753846-23.630769-3.938462-9.846154-5.907692-19.692308-5.907692-29.538461v-196.923077z m49.230769 198.892307c0 5.907692 1.969231 11.815385 5.907692 17.723077 3.938462 3.938462 9.846154 7.876923 17.723077 5.907693 5.907692 0 11.815385-1.969231 17.723077-5.907693 3.938462-3.938462 5.907692-11.815385 5.907693-17.723077v-196.923077c0-5.907692-1.969231-11.815385-5.907693-17.723077-3.938462-3.938462-9.846154-7.876923-17.723077-5.907692-5.907692 0-11.815385 1.969231-17.723077 5.907692-3.938462 3.938462-5.907692 11.815385-5.907692 17.723077v196.923077z"  /></svg>