<?xml version="1.0" standalone="no"?><!DOCTYPE svg PUBLIC "-//W3C//DTD SVG 1.1//EN" "http://www.w3.org/Graphics/SVG/1.1/DTD/svg11.dtd"><svg class="icon" width="200px" height="200.00px" viewBox="0 0 1024 1024" version="1.1" xmlns="http://www.w3.org/2000/svg"><path fill="#000000" d="M925.8 337.1c-22.7-53.6-55.1-101.7-96.4-143-41.3-41.3-89.4-73.7-143-96.4C631 74.2 572 62.3 511.3 62.3S391.7 74.2 336.2 97.7c-53.6 22.7-101.7 55.1-143 96.4-41.3 41.3-73.7 89.4-96.4 143-23.5 55.5-35.4 114.4-35.4 175.1s11.9 119.6 35.4 175.1c22.7 53.6 55.1 101.7 96.4 143 41.3 41.3 89.4 73.7 143 96.4 55.5 23.5 114.4 35.4 175.1 35.4s119.6-11.9 175.1-35.4c53.6-22.7 101.7-55.1 143-96.4 41.3-41.3 73.7-89.4 96.4-143 23.5-55.5 35.4-114.4 35.4-175.1s-11.9-119.6-35.4-175.1z m-414.5 545c-204 0-369.9-165.9-369.9-369.9s165.9-369.9 369.9-369.9c204 0 369.9 165.9 369.9 369.9S715.3 882.1 511.3 882.1zM511.3 235.1c-74 0-143.6 28.8-196 81.2s-81.2 121.9-81.2 196c0 74 28.8 143.6 81.2 196 52.3 52.3 121.9 81.2 196 81.2s143.6-28.8 196-81.2c52.3-52.3 81.2-121.9 81.2-196 0-74-28.8-143.6-81.2-196-52.4-52.4-121.9-81.2-196-81.2z m0 474.2c-108.7 0-197.1-88.4-197.1-197.1s88.4-197.1 197.1-197.1 197.1 88.4 197.1 197.1S620 709.3 511.3 709.3zM446.516309 577.002698a91.6 91.6 0 1 0 129.539701-129.544223 91.6 91.6 0 1 0-129.539701 129.544223Z" /></svg>