<?xml version="1.0" standalone="no"?><!DOCTYPE svg PUBLIC "-//W3C//DTD SVG 1.1//EN" "http://www.w3.org/Graphics/SVG/1.1/DTD/svg11.dtd"><svg t="1734455138184" class="icon" viewBox="0 0 1117 1024" version="1.1" xmlns="http://www.w3.org/2000/svg" p-id="13882" xmlns:xlink="http://www.w3.org/1999/xlink" width="218.1640625" height="200"><path d="M545.50033 0c97.510511 0 176.798891 79.358196 176.79889 176.868708a176.356719 176.356719 0 0 1-51.012658 124.18045l212.009727 372.704257A176.868708 176.868708 0 0 1 1095.422377 847.10802c0 97.533783-79.311652 176.89198-176.798891 176.89198-77.263699 0-143.100748-49.825777-167.094384-119.060567H343.893275C319.899639 974.174223 254.062589 1023.976728 176.798891 1023.976728 79.28838 1023.976728 0 944.618531 0 847.10802c0-97.557056 79.311652-176.89198 176.798891-176.891979 5.445694 0 10.844844 0.232722 16.174178 0.721438l216.687439-380.965887a176.147269 176.147269 0 0 1-40.959069-113.102884c0-97.510511 79.311652-176.868708 176.798891-176.868708zM176.798891 761.931774a85.246063 85.246063 0 0 0-85.129702 85.176246c0 46.940024 38.166405 85.152974 85.129702 85.152974a85.246063 85.246063 0 0 0 85.129702-85.176246c0-46.940024-38.189678-85.176246-85.129702-85.176246z m741.824595 0a85.246063 85.246063 0 0 0-85.129702 85.176246c0 46.940024 38.189678 85.152974 85.129702 85.152974a85.246063 85.246063 0 0 0 85.129701-85.176246c0-46.940024-38.189678-85.176246-85.129701-85.176246zM485.178791 343.148565l-205.028067 360.486352a177.241063 177.241063 0 0 1 69.932956 108.308812h395.255017a176.961796 176.961796 0 0 1 55.713643-96.835618l-209.07743-367.537829a176.333447 176.333447 0 0 1-46.47458 6.190405c-21.177701 0-41.49433-3.723552-60.321539-10.612122zM545.50033 91.715734a85.246063 85.246063 0 0 0-85.129702 85.176246c0 46.940024 38.189678 85.176246 85.129702 85.176246a85.246063 85.246063 0 0 0 85.129701-85.176246c0-46.963296-38.166405-85.176246-85.129701-85.176246z" p-id="13883"></path></svg>