<?xml version="1.0" standalone="no"?><!DOCTYPE svg PUBLIC "-//W3C//DTD SVG 1.1//EN" "http://www.w3.org/Graphics/SVG/1.1/DTD/svg11.dtd"><svg class="icon" width="200px" height="200.00px" viewBox="0 0 1024 1024" version="1.1" xmlns="http://www.w3.org/2000/svg"><path fill="#000000" d="M926.6 335.6c-22.6-53.4-54.9-101.3-96.1-142.5-41.1-41.2-89.1-73.5-142.5-96.1-55.3-23.4-114-35.2-174.5-35.2S394.3 73.6 339 97c-53.4 22.6-101.3 54.9-142.5 96.1-41.2 41.2-73.5 89.1-96.1 142.5-23.4 55.3-35.2 114-35.2 174.5s11.9 119.2 35.2 174.5c22.6 53.4 54.9 101.3 96.1 142.5 41.2 41.2 89.1 73.5 142.5 96.1 55.3 23.4 114 35.2 174.5 35.2s119.2-11.9 174.5-35.2c53.4-22.6 101.3-54.9 142.5-96.1 41.2-41.2 73.5-89.1 96.1-142.5 23.4-55.3 35.2-114 35.2-174.5S950 390.9 926.6 335.6zM513.5 878.4c-203.1 0-368.3-165.2-368.3-368.3s165.2-368.3 368.3-368.3c203.1 0 368.3 165.2 368.3 368.3S716.6 878.4 513.5 878.4zM306.4 510.1m-61.4 0a61.4 61.4 0 1 0 122.8 0 61.4 61.4 0 1 0-122.8 0ZM516.3 510.1m-61.4 0a61.4 61.4 0 1 0 122.8 0 61.4 61.4 0 1 0-122.8 0ZM720.7 510.1m-61.4 0a61.4 61.4 0 1 0 122.8 0 61.4 61.4 0 1 0-122.8 0Z" /></svg>