<svg t="1734858687380" class="icon" viewBox="0 0 1024 1024" version="1.1" xmlns="http://www.w3.org/2000/svg" p-id="4247" xmlns:xlink="http://www.w3.org/1999/xlink" width="200" height="200">
  <g transform="rotate(-90, 512, 512)">
    <path d="M223.71328 416.031744c-53.046272 0-95.968256 42.968064-95.968256 95.968256 0 52.99712 42.921984 95.968256 95.968256 95.968256 52.95104 0 95.968256-42.971136 95.968256-95.968256C319.680512 459.000832 276.66432 416.031744 223.71328 416.031744zM511.617024 416.031744c-53.045248 0-95.968256 42.968064-95.968256 95.968256 0 52.99712 42.923008 95.968256 95.968256 95.968256 52.95104 0 95.968256-42.971136 95.968256-95.968256C607.58528 459.000832 564.568064 416.031744 511.617024 416.031744zM799.520768 416.031744c-53.045248 0-95.968256 42.968064-95.968256 95.968256 0 52.99712 42.923008 95.968256 95.968256 95.968256 52.95104 0 95.968256-42.971136 95.968256-95.968256C895.489024 459.000832 852.471808 416.031744 799.520768 416.031744z" p-id="4248"></path>
  </g>
</svg>