<?xml version="1.0" standalone="no"?><!DOCTYPE svg PUBLIC "-//W3C//DTD SVG 1.1//EN" "http://www.w3.org/Graphics/SVG/1.1/DTD/svg11.dtd"><svg class="icon" width="200px" height="200.00px" viewBox="0 0 1024 1024" version="1.1" xmlns="http://www.w3.org/2000/svg"><path fill="#fff" d="M927.1 338.9c-22.6-53.4-54.9-101.3-96.1-142.5-41.2-41.2-89.1-73.5-142.5-96.1C633.2 77 574.5 65.1 514 65.1S394.8 77 339.5 100.3c-53.4 22.6-101.3 54.9-142.5 96.1-41.2 41.2-73.5 89.1-96.1 142.5-23.4 55.3-35.2 114-35.2 174.5S77.6 632.6 101 687.9c22.6 53.4 54.9 101.3 96.1 142.5 41.2 41.2 89.1 73.5 142.5 96.1 55.3 23.4 114 35.2 174.5 35.2s119.2-11.9 174.5-35.2c53.4-22.6 101.3-54.9 142.5-96.1 41.2-41.2 73.5-89.1 96.1-142.5 23.4-55.3 35.2-114 35.2-174.5s-12-119.2-35.3-174.5zM514 881.7c-203.1 0-368.3-165.2-368.3-368.3 0-203.1 165.2-368.3 368.3-368.3s368.3 165.2 368.3 368.3c0 203.1-165.2 368.3-368.3 368.3zM554 270c0-22.1-17.9-40-40-40s-40 17.9-40 40v287.2c0 1.9 0.1 3.8 0.4 5.7v0.7c0 22.1 17.9 40 40 40h287.2c22.1 0 40-17.9 40-40s-17.9-40-40-40H554V270z" /></svg>