<?xml version="1.0" standalone="no"?><!DOCTYPE svg PUBLIC "-//W3C//DTD SVG 1.1//EN" "http://www.w3.org/Graphics/SVG/1.1/DTD/svg11.dtd"><svg class="icon" width="200px" height="200.00px" viewBox="0 0 1024 1024" version="1.1" xmlns="http://www.w3.org/2000/svg"><path fill="#000000" d="M921.9 499.2c25.4-39.1 39.5-85.2 39.5-133.2 0-65.2-25.4-126.5-71.5-172.7-45-45-104.4-70.2-167.8-71.5-68.3-1.3-134.3 26.2-181.5 75.6-10.7 11.2-20.2 23.3-28.5 36.1-0.9 1.3-2.8 1.3-3.6 0-10.5-16.2-23-31.3-37.4-44.9-43.4-41.1-100.6-64.8-160.4-66.5-67.7-1.9-131.6 23.6-179.2 71.3-46 46-71.3 107.2-71.3 172.2 0 42.9 11.3 85.1 32.7 122.1 2.8 4.8 5.7 9.4 8.8 14 0.1 0.1 0.1 0.2 0.2 0.4 2.2 5.6 17.5 22.7 17.5 22.7 7.8 9 16.2 17.4 25.1 25.1l0.1 0.1L510 915.4c0.8 0.8 2.2 0.8 3.1 0l369.2-369.2c5.3-4.9 10.4-10 15.3-15.3-0.3-0.1 18.7-22.4 24.3-31.7zM238 530.4s-32.1-33.2-38.7-38.7l-0.1-0.1-22.3-22.3-0.2-0.2c-27.5-33.5-40.9-77.2-35.6-123.2 8.3-72.4 64.4-130.7 136.4-141.9 101.7-15.8 189.7 62.8 189.7 161.6 0 22.1 17.9 40 40 40h0.1c1.9 0.3 3.8 0.4 5.7 0.4 22.1 0 40-17.9 40-40 0-90.5 73.7-164.2 164.2-164.2S881.4 275.5 881.4 366c0 41-15.3 79.9-42.1 109.8l-0.1 0.1-12.1 12.1c-5.4 4.9-26.6 24.7-32 32l-0.2 0.2-282 282c-0.8 0.8-2.2 0.8-3.1 0L238 530.4z" /></svg>