<?xml version="1.0" standalone="no"?><!DOCTYPE svg PUBLIC "-//W3C//DTD SVG 1.1//EN" "http://www.w3.org/Graphics/SVG/1.1/DTD/svg11.dtd"><svg class="icon" width="200px" height="200.00px" viewBox="0 0 1024 1024" version="1.1" xmlns="http://www.w3.org/2000/svg"><path fill="#333" d="M890.7 95.8H134.9c-20.5 0-37.1 20.5-37.1 45.8V880c0 25.3 16.6 45.8 37.1 45.8h755.8c20.5 0 37.1-20.5 37.1-45.8V141.6c0-25.3-16.6-45.8-37.1-45.8z m-37.2 738.4H172V187.4h681.5v646.8zM343.6 550.2l129 0.4-0.4 129c-0.1 22.1 17.8 40.1 39.9 40.1h0.1c22 0 39.9-17.8 40-39.9l0.4-129 129 0.4h0.1c22 0 39.9-17.8 40-39.9 0.1-22.1-17.8-40.1-39.9-40.1l-129-0.4 0.4-129c0.1-22.1-17.8-40.1-39.9-40.1-22.1-0.1-40.1 17.8-40.1 39.9l-0.4 129-129-0.4h-0.1c-22 0-39.9 17.8-40 39.9 0 22.1 17.8 40.1 39.9 40.1z" /></svg>