<?xml version="1.0" standalone="no"?><!DOCTYPE svg PUBLIC "-//W3C//DTD SVG 1.1//EN" "http://www.w3.org/Graphics/SVG/1.1/DTD/svg11.dtd"><svg class="icon" width="200px" height="200.00px" viewBox="0 0 1024 1024" version="1.1" xmlns="http://www.w3.org/2000/svg"><path fill="#fff" d="M101.9 684.1c22.6 53.4 54.9 101.3 96.1 142.5 41.2 41.2 89.1 73.5 142.5 96.1 55.3 23.4 114 35.2 174.5 35.2s119.2-11.9 174.5-35.2c53.4-22.6 101.3-54.9 142.5-96.1 41.2-41.2 73.5-89.1 96.1-142.5 23.4-55.3 35.2-114 35.2-174.5s-11.9-119.2-35.2-174.5c-22.6-53.4-54.9-101.3-96.1-142.5-41.2-41.2-89.1-73.5-142.5-96.1-55.3-23.4-114-35.2-174.5-35.2S395.7 73.1 340.4 96.5c-53.4 22.6-101.3 54.9-142.5 96.1-41.2 41.2-73.5 89.1-96.1 142.5-23.4 55.3-35.2 114-35.2 174.5s11.9 119.2 35.3 174.5z m413-542.8c203.1 0 368.3 165.2 368.3 368.3 0 203.1-165.2 368.3-368.3 368.3-203.1 0-368.3-165.2-368.3-368.3 0-203.1 165.2-368.3 368.3-368.3zM343.9 679.2c12.4 7.1 27.6 7.1 40 0l233.8-135c3.1-1.8 5.8-3.9 8.3-6.4v124.7c0 22.1 17.9 40 40 40s40-17.9 40-40v-306c0-22.1-17.9-40-40-40s-40 17.9-40 40v124.7c-2.4-2.4-5.2-4.6-8.3-6.4l-233.8-135c-6.2-3.6-13.1-5.4-20-5.4s-13.8 1.8-20 5.4c-12.4 7.1-20 20.3-20 34.6v270c0 14.4 7.6 27.7 20 34.8z m60-235.3l113.8 65.7-113.8 65.7V443.9z" /></svg>