<?xml version="1.0" standalone="no"?><!DOCTYPE svg PUBLIC "-//W3C//DTD SVG 1.1//EN" "http://www.w3.org/Graphics/SVG/1.1/DTD/svg11.dtd"><svg class="icon" width="200px" height="200.00px" viewBox="0 0 1024 1024" version="1.1" xmlns="http://www.w3.org/2000/svg"><path fill="#000000" d="M921 571.9c-5.9-15.5-20.8-25.8-37.4-25.8H768.1V98.2c0-22.1-17.9-40-40-40H294.8c-22.1 0-40 17.9-40 40v447.9H139.3c-16.6 0-31.5 10.3-37.4 25.8-5.9 15.5-1.6 33.1 10.8 44.1l372.2 331c7.6 6.7 17.1 10.1 26.6 10.1s19-3.4 26.6-10.1l372.2-331c12.3-11.1 16.6-28.6 10.7-44.1zM511.5 863.5L244.5 626h50.4c22.1 0 40-17.9 40-40V138.2h353.3v447.9c0 22.1 17.9 40 40 40h50.4L511.5 863.5z" /></svg>