<?xml version="1.0" standalone="no"?><!DOCTYPE svg PUBLIC "-//W3C//DTD SVG 1.1//EN" "http://www.w3.org/Graphics/SVG/1.1/DTD/svg11.dtd"><svg class="icon" width="200px" height="200.00px" viewBox="0 0 1024 1024" version="1.1" xmlns="http://www.w3.org/2000/svg"><path fill="#000000" d="M639.7 93.8c-12-7.2-26.8-7.7-39.2-1.2L322 238.1H112c-22.1 0-40 17.9-40 40v449.7c0 22.1 17.9 40 40 40h204.9c0.5 0.3 1.1 0.6 1.6 0.9l282.3 144c5.7 2.9 12 4.4 18.2 4.4 7.3 0 14.5-2 20.9-5.9 11.9-7.3 19.1-20.2 19.1-34.1V128c0-14-7.3-27-19.3-34.2zM152 318.1h144.7v369.7H152V318.1z m427 493.6L376.7 708.5V299.7L579 194v617.7zM855.3 225.6c-15.6-15.6-41-15.6-56.6 0.1s-15.6 41 0.1 56.6c65.6 65.5 87.8 123.4 87.8 229.6 0 113.7-20.9 173-82.8 234.9-15.6 15.6-15.6 40.9 0 56.6 7.8 7.8 18 11.7 28.3 11.7 10.2 0 20.5-3.9 28.3-11.7 41.4-41.4 68.4-83.4 84.9-132.3 14.7-43.5 21.3-92.6 21.3-159.2 0-127.8-30.1-205.4-111.3-286.3z" /></svg>