<?xml version="1.0" standalone="no"?><!DOCTYPE svg PUBLIC "-//W3C//DTD SVG 1.1//EN" "http://www.w3.org/Graphics/SVG/1.1/DTD/svg11.dtd"><svg class="icon" width="200px" height="200.00px" viewBox="0 0 1024 1024" version="1.1" xmlns="http://www.w3.org/2000/svg"><path fill="#333" d="M872.1 739.4c0.1-1.1 0.1-2.2 0.1-3.3V98.2c0-22.1-17.9-40-40-40-6 0-11.7 1.3-16.8 3.7L420.7 178.7c-19.9 5.9-31.8 25.9-27.9 45.9v532.7c-23.7-9.5-51.2-15-80.5-15-88.9 0-160.9 50.1-160.9 112s72 112 160.9 112c74 0 136.4-34.8 155.1-82.2 3.4-5.9 5.4-12.7 5.4-20v-1.9c0.3-2.6 0.4-5.2 0.4-7.9s-0.1-5.3-0.4-7.9V246.7l319.6-94.5v501c-23.6-9.5-51.1-14.9-80.3-14.9-88.9 0-160.9 50.1-160.9 112s72 112 160.9 112S873 812.2 873 750.3c-0.1-3.7-0.4-7.3-0.9-10.9z" /></svg>