<?xml version="1.0" standalone="no"?><!DOCTYPE svg PUBLIC "-//W3C//DTD SVG 1.1//EN" "http://www.w3.org/Graphics/SVG/1.1/DTD/svg11.dtd"><svg class="icon" width="200px" height="200.00px" viewBox="0 0 1024 1024" version="1.1" xmlns="http://www.w3.org/2000/svg"><path transform="rotate(-180 510.5 511.4)" fill="#fff" d="M923.5 336.9c-22.6-53.4-54.9-101.3-96.1-142.5-41.2-41.2-89.1-73.5-142.5-96.1C629.7 75 571 63.1 510.5 63.1S391.3 75 336 98.3c-53.4 22.6-101.3 54.9-142.5 96.1-41.2 41.2-73.5 89.1-96.1 142.5-23.4 55.3-35.2 114-35.2 174.5s11.9 119.2 35.2 174.5c22.6 53.4 54.9 101.3 96.1 142.5 41.2 41.2 89.1 73.5 142.5 96.1 55.3 23.4 114 35.2 174.5 35.2s119.2-11.9 174.5-35.2c53.4-22.6 101.3-54.9 142.5-96.1 41.2-41.2 73.5-89.1 96.1-142.5 23.4-55.3 35.2-114 35.2-174.5s-11.9-119.2-35.3-174.5z m-413 542.8c-203.1 0-368.3-165.2-368.3-368.3 0-203.1 165.2-368.3 368.3-368.3 203.1 0 368.3 165.2 368.3 368.3 0 203.1-165.2 368.3-368.3 368.3zM647.4 341.8c-12.4-7.1-27.6-7.1-40 0l-233.8 135c-12.4 7.1-20 20.4-20 34.6 0 14.3 7.6 27.5 20 34.6l233.8 135c6.2 3.6 13.1 5.4 20 5.4s13.8-1.8 20-5.4c12.4-7.1 20-20.3 20-34.6v-270c0-14.3-7.6-27.5-20-34.6z m-60 235.3l-113.8-65.7 113.8-65.7v131.4z" /></svg>